# xmcd
#
# Track frame offsets: 
#        150
#        11645
#        23600
#        37805
#        49618
#        63265
#        76960
#        87548
#        102590
#        115133
#
# Disc length: 1690 seconds
#
# Revision: 0
# Processed by: cddbd v1.5.2PL0 Copyright (c) Steve Scherf et al.
# Submitted via: ExactAudioCopyFreeDBPlugin 1.0
#
DISCID=7106980a
DTITLE=Willie Nelson - Remember Me
DYEAR=1900
DGENRE=Country
TTITLE0=Some Other Time
TTITLE1=I Hope So
TTITLE2=Will You Remember Me
TTITLE3=Is There Something On Your Mind
TTITLE4=Everything But You
TTITLE5=A Moment Isn't Very Long
TTITLE6=Blame It On The Times
TTITLE7=Face Of The Fighter
TTITLE8=Shelter Of My Arms
TTITLE9=End Of Understanding
EXTD=
EXTT0=
EXTT1=
EXTT2=
EXTT3=
EXTT4=
EXTT5=
EXTT6=
EXTT7=
EXTT8=
EXTT9=
PLAYORDER=
